<svg width="1977" height="1274" viewBox="0 0 1977 1274" fill="none" xmlns="http://www.w3.org/2000/svg">
<path d="M1977 1274H0V0H1977V1274ZM318.25 528.85C299.117 528.85 281.617 532.7 265.75 540.4C249.883 547.867 237.283 558.134 227.95 571.2C218.85 584.033 214.3 598.15 214.3 613.55V695.1C214.3 710.5 218.85 724.733 227.95 737.8C237.284 750.866 249.883 761.25 265.75 768.95C281.617 776.417 299.117 780.15 318.25 780.15C337.383 780.15 354.883 776.417 370.75 768.95C386.85 761.25 399.45 750.866 408.55 737.8C417.883 724.733 422.55 710.5 422.55 695.1V613.55C422.55 598.15 417.883 584.033 408.55 571.2C399.45 558.134 386.85 547.867 370.75 540.4C354.883 532.7 337.383 528.85 318.25 528.85ZM479.914 532C473.148 532 467.548 534.1 463.114 538.3C458.681 542.266 456.465 547.283 456.465 553.35V780.15C471.631 780.15 483.065 777.234 490.765 771.4C498.698 765.567 502.664 756.933 502.664 745.5V684.25H573.015C583.048 684.25 590.514 687.167 595.414 693C600.314 698.833 602.765 707.933 602.765 720.3V780.15C618.165 780.15 629.831 777.234 637.765 771.4C645.698 765.334 649.664 756.7 649.664 745.5V718.2C649.664 692.767 639.398 675.5 618.864 666.4V665.35C630.297 659.75 638.814 652.283 644.414 642.95C650.014 633.384 652.814 621.717 652.814 607.95C652.814 583.917 645.814 565.25 631.814 551.95C618.048 538.65 598.564 532 573.364 532H479.914ZM789.646 528.85C769.112 528.85 750.912 532.817 735.045 540.75C719.178 548.45 706.696 559.417 697.596 573.65C688.729 587.65 684.295 603.75 684.295 621.95V686.35C684.295 704.55 688.845 720.767 697.945 735C707.045 749.233 719.645 760.317 735.745 768.25C752.078 776.183 770.629 780.15 791.396 780.15C811.695 780.15 829.779 776.65 845.646 769.65C861.746 762.65 874.229 752.966 883.096 740.6C891.962 728 896.396 713.65 896.396 697.55V670.25C896.396 663.717 894.412 658.467 890.445 654.5C886.479 650.533 881.229 648.55 874.695 648.55H789.646C789.646 659.516 792.445 668.5 798.045 675.5C803.645 682.267 810.879 685.65 819.745 685.65H849.846V696.5C849.846 709.333 844.362 719.833 833.396 728C822.662 735.933 808.662 739.9 791.396 739.9C773.662 739.9 759.195 734.883 747.995 724.85C736.795 714.816 731.195 701.983 731.195 686.35V621.95C731.195 606.317 736.562 593.6 747.295 583.8C758.262 574 772.379 569.1 789.646 569.1C807.145 569.1 821.379 572.95 832.346 580.65C843.312 588.35 848.795 598.384 848.795 610.75C848.795 616.117 848.562 621.6 848.096 627.2C853.695 628.6 858.829 629.3 863.495 629.3C873.062 629.3 880.645 626.85 886.245 621.95C892.078 617.05 894.995 610.284 894.995 601.65C894.995 587.417 890.562 574.816 881.695 563.85C872.829 552.883 860.345 544.366 844.245 538.3C828.379 532 810.179 528.85 789.646 528.85ZM1031.68 528.85C1020.71 528.85 1013.01 533.983 1008.58 544.25L928.429 726.6C925.162 733.833 923.528 740.833 923.528 747.6C923.528 756.466 926.329 763.817 931.929 769.65C937.762 775.484 945.695 778.984 955.729 780.15L985.479 713.65H1077.53L1106.93 780.15C1117.2 778.984 1125.13 775.484 1130.73 769.65C1136.56 763.817 1139.48 756.466 1139.48 747.6C1139.48 741.3 1137.84 734.299 1134.58 726.6L1054.43 544.25C1050 533.983 1042.41 528.85 1031.68 528.85ZM1323.7 687.05L1338.05 710.85L1334.55 713.65L1216.25 528.85C1203.19 528.85 1192.8 532.233 1185.1 539C1177.4 545.533 1173.55 554.517 1173.55 565.95V780.15C1188.72 780.15 1200.15 777.234 1207.85 771.4C1215.79 765.567 1219.75 756.933 1219.75 745.5V612.15L1205.4 588.35L1208.9 585.2L1333.5 780.15C1343.07 780.15 1351.47 777 1358.7 770.7C1366.17 764.4 1369.9 756.933 1369.9 748.3V563.5C1369.9 552.067 1365.94 543.433 1358 537.6C1350.3 531.766 1338.87 528.85 1323.7 528.85V687.05ZM1464.66 528.85C1449.73 528.85 1438.18 532 1430.01 538.3C1421.85 544.366 1417.76 552.883 1417.76 563.85V780.15C1432.69 780.15 1444.24 777.116 1452.41 771.05C1460.58 764.983 1464.66 756.35 1464.66 745.15V528.85ZM1611.67 528.85C1591.13 528.85 1572.93 532.817 1557.07 540.75C1541.2 548.45 1528.72 559.417 1519.62 573.65C1510.75 587.65 1506.32 603.75 1506.32 621.95V686.35C1506.32 704.55 1510.87 720.767 1519.97 735C1529.07 749.233 1541.67 760.317 1557.77 768.25C1574.1 776.183 1592.65 780.15 1613.42 780.15C1633.95 780.15 1652.15 777.116 1668.02 771.05C1684.12 764.983 1696.6 756.583 1705.47 745.85C1714.33 734.883 1718.77 722.517 1718.77 708.75C1718.77 699.883 1715.85 692.883 1710.02 687.75C1704.18 682.617 1696.37 680.05 1686.57 680.05C1682.6 680.05 1677.7 680.633 1671.87 681.8C1672.33 686.933 1672.57 692.3 1672.57 697.9C1672.57 710.034 1667.08 719.95 1656.12 727.65C1645.15 735.35 1630.92 739.2 1613.42 739.2C1595.68 739.2 1581.22 734.3 1570.02 724.5C1558.82 714.7 1553.22 701.983 1553.22 686.35V621.95C1553.22 606.55 1558.58 594.067 1569.32 584.5C1580.28 574.7 1594.4 569.8 1611.67 569.8C1629.17 569.8 1643.4 573.65 1654.37 581.35C1665.33 589.05 1670.82 599.084 1670.82 611.45C1670.82 616.817 1670.58 622.3 1670.12 627.9C1675.72 629.3 1680.85 630 1685.52 630C1695.08 630 1702.67 627.55 1708.27 622.65C1714.1 617.517 1717.02 610.633 1717.02 602C1717.02 587.767 1712.58 575.167 1703.72 564.2C1694.85 553 1682.37 544.366 1666.27 538.3C1650.4 532 1632.2 528.85 1611.67 528.85ZM318.25 569.45C335.75 569.45 349.75 573.65 360.25 582.05C370.75 590.216 376 601.066 376 614.6V694.4C376 707.7 370.75 718.55 360.25 726.95C349.75 735.117 335.75 739.2 318.25 739.2C300.983 739.2 287.1 735.117 276.6 726.95C266.1 718.55 260.85 707.7 260.85 694.4V614.6C260.85 601.067 266.1 590.216 276.6 582.05C287.1 573.65 300.983 569.45 318.25 569.45ZM1063.18 673.75H999.479L1028.88 601.3L1020.48 579.6L1024.68 577.85L1063.18 673.75ZM570.914 571.9C594.247 571.9 605.914 583.8 605.914 607.6C605.914 619.266 602.881 628.367 596.814 634.9C590.748 641.2 582.114 644.35 570.914 644.35H502.664V571.9H570.914Z" fill="black"/>
</svg>
